 <svg
              width="84"
              height="84"
              viewBox="0 0 84 84"
              fill="none"
              xmlns="http://www.w3.org/2000/svg"
            >
              <rect width="84" height="84" fill="white" />
              <path
                d="M33.3125 40H10V23.375C10 20.4583 10.375 17.6667 11.125 15C11.9167 12.2917 13.2292 9.89583 15.0625 7.8125C16.8958 5.72917 19.2917 4.0625 22.25 2.8125C25.25 1.5625 28.9375 0.9375 33.3125 0.9375V11.6875C30.8125 11.6875 28.7292 11.9792 27.0625 12.5625C25.3958 13.1042 24.0625 13.8958 23.0625 14.9375C22.1042 15.9375 21.4167 17.1458 21 18.5625C20.5833 19.9792 20.375 21.5833 20.375 23.375V24.25H33.3125V40ZM68.25 40H44.9375V23.375C44.9375 20.4583 45.3125 17.6667 46.0625 15C46.8542 12.2917 48.1667 9.89583 50 7.8125C51.8333 5.72917 54.2292 4.0625 57.1875 2.8125C60.1875 1.5625 63.875 0.9375 68.25 0.9375V11.6875C65.75 11.6875 63.6667 11.9792 62 12.5625C60.375 13.1042 59.0625 13.8958 58.0625 14.9375C57.0625 15.9375 56.3542 17.1458 55.9375 18.5625C55.5208 19.9792 55.3125 21.5833 55.3125 23.375V24.25H68.25V40Z"
                fill="black"
              />
            </svg>