<svg
              width="84"
              height="84"
              viewBox="0 0 84 84"
              fill="none"
              xmlns="http://www.w3.org/2000/svg"
            >
              <rect
                width="84"
                height="84"
                transform="matrix(-1 0 0 -1 84 84)"
                fill="white"
              />
              <path
                d="M50.6875 44H74V60.625C74 63.5417 73.625 66.3333 72.875 69C72.0833 71.7083 70.7708 74.1042 68.9375 76.1875C67.1042 78.2708 64.7083 79.9375 61.75 81.1875C58.75 82.4375 55.0625 83.0625 50.6875 83.0625V72.3125C53.1875 72.3125 55.2708 72.0208 56.9375 71.4375C58.6042 70.8958 59.9375 70.1042 60.9375 69.0625C61.8958 68.0625 62.5833 66.8542 63 65.4375C63.4167 64.0208 63.625 62.4167 63.625 60.625V59.75H50.6875V44ZM15.75 44H39.0625V60.625C39.0625 63.5417 38.6875 66.3333 37.9375 69C37.1458 71.7083 35.8333 74.1042 34 76.1875C32.1667 78.2708 29.7708 79.9375 26.8125 81.1875C23.8125 82.4375 20.125 83.0625 15.75 83.0625V72.3125C18.25 72.3125 20.3333 72.0208 22 71.4375C23.625 70.8958 24.9375 70.1042 25.9375 69.0625C26.9375 68.0625 27.6458 66.8542 28.0625 65.4375C28.4792 64.0208 28.6875 62.4167 28.6875 60.625V59.75H15.75V44Z"
                fill="black"
              />
            </svg>