<svg width="365" height="301" viewBox="0 0 365 301" fill="none" xmlns="http://www.w3.org/2000/svg">
    <g clip-path="url(#clip0_2_4089)">
        <path d="M216.344 110.11C216.521 110.133 216.633 110.112 216.344 110.11V110.11Z" fill="#08A4FF" />
        <path
            d="M57.0234 132.372C56.9628 132.394 56.9309 132.411 56.8727 132.437C56.7761 132.563 56.6851 132.681 56.5926 132.777L57.0314 132.368L57.0234 132.372Z"
            fill="#08A4FF" />
        <path
            d="M36.3378 144.689C36.2925 144.719 36.2734 144.741 36.2488 144.771C36.3293 144.768 36.3724 144.79 36.3378 144.689Z"
            fill="#08A4FF" />
        <path
            d="M117.762 116.725C117.991 116.692 118.125 116.653 118.228 116.615C118.094 116.653 117.95 116.692 117.762 116.725Z"
            fill="#08A4FF" />
        <path
            d="M258.266 113.719C258.266 113.719 258.212 113.714 258.168 113.709C258.234 113.736 258.3 113.763 258.359 113.794L258.266 113.719Z"
            fill="#08A4FF" />
        <path
            d="M257.732 113.763C257.306 113.623 257.949 113.686 258.168 113.709C257.725 113.521 257.214 113.416 256.649 113.363C256.563 113.472 257.572 113.639 257.74 113.759L257.732 113.763Z"
            fill="#08A4FF" />
        <path d="M322.336 134.036L322.131 133.982C322.207 134.009 322.277 134.023 322.336 134.036Z" fill="#08A4FF" />
        <path
            d="M117.889 110.351C118.027 110.321 118.174 110.288 118.303 110.258C118.099 110.283 117.973 110.317 117.889 110.351Z"
            fill="#08A4FF" />
        <path d="M313.471 129.621L313.213 129.715C313.369 129.7 313.433 129.665 313.471 129.621Z" fill="#08A4FF" />
        <path d="M56.5847 132.782L56.4136 132.939C56.472 132.896 56.5256 132.843 56.5847 132.782Z" fill="#08A4FF" />
        <path
            d="M37.8738 156.718C37.7852 156.783 37.7325 156.858 37.6982 156.928C37.7054 156.941 37.7126 156.954 37.7253 156.959L37.8738 156.718Z"
            fill="#08A4FF" />
        <path
            d="M134.454 175.794C134.466 175.759 134.476 175.719 134.465 175.68L133.877 175.89C134.127 175.875 134.315 175.841 134.454 175.794Z"
            fill="#08A4FF" />
        <path
            d="M58.4772 166.64C58.5251 166.614 58.6112 166.602 58.6463 166.571C58.2923 166.375 57.1056 166.128 55.6494 165.765L55.2624 166.06C56.2968 166.293 57.4046 166.451 58.4716 166.649L58.4772 166.64Z"
            fill="#08A4FF" />
        <path
            d="M83.0324 178.768L80.3913 177.78C85.5514 178.121 89.2489 178.468 92.7764 178.787C96.3207 179.079 99.7143 179.322 104.363 179.233L103.763 179.365C104.975 179.563 106.691 178.102 119.884 180.446L119.839 180.516C120.355 180.516 120.442 180.372 121.322 180.585L119.099 180.084C120.716 179.944 122.263 179.618 124.3 179.604C124.677 179.691 124.719 179.845 124.69 179.963L129.7 179.913L130.914 180.401C132.596 180.152 132.532 179.159 136.232 179.738C135.139 179.035 138.507 179.327 138.23 178.969C138.382 179.058 138.762 179.188 139.065 179.309C141.551 179.229 146.175 179.039 147.514 178.672C147.514 178.672 145.414 178.282 143.025 177.836C140.629 177.377 137.992 176.815 136.964 176.442C140.236 176.632 137.909 176.358 137.391 176.125L137.056 176.307C135.13 176.124 135.407 175.683 134.474 175.561C134.451 175.596 134.454 175.64 134.458 175.684L134.623 175.628C134.667 175.708 134.581 175.76 134.442 175.807C134.409 175.899 134.265 175.977 133.732 175.946L133.864 175.903C132.98 175.966 131.562 175.884 130.952 175.844L131.176 175.477C129.22 176.172 121.828 174.302 119.862 174.238C118.166 173.736 115.316 174.248 112.994 173.944C109.12 173.71 111.369 173.364 109.607 172.989C107.3 172.676 109.821 173.421 108.823 173.409L106.213 172.803C107.952 172.831 107.175 172.579 106.951 172.432C104.456 172.266 100.921 171.438 99.6623 172.086C96.4961 171.577 96.7148 171.276 95.2888 171.159C95.6835 171.316 96.5624 171.49 96.465 171.634C95.3342 171.243 95.7631 171.672 96.2719 171.773C93.9573 171.978 86.5774 169.77 85.62 170.46L85.7222 170.325C84.8351 170.84 85.1857 171.449 83.5331 171.637L82.7891 171.293L81.2003 171.389C80.3908 171.115 80.9739 171.01 81.021 170.944C79.7728 170.965 78.4162 170.804 77.0468 170.582C75.6639 170.373 74.2762 170.098 72.9587 169.877C73.5192 170.492 74.0732 171.133 74.6496 171.739C72.5985 171.116 69.0602 169.845 68.2305 170.237L67.2849 169.54C63.6096 167.863 63.8258 169.424 62.2892 168.836L60.562 167.878L62.728 168.313C60.7974 167.607 60.0518 167.298 58.685 166.567C58.685 166.567 58.6563 166.571 58.6507 166.58C58.7496 166.629 58.8022 166.669 58.7903 166.704L58.484 166.653C58.0006 166.847 56.7006 166.81 55.2611 166.42C54.269 166.113 53.2618 165.969 52.1851 165.697C51.1436 165.394 49.941 165.041 48.694 164.245L47.3962 164.498C46.7256 164.137 46.0709 163.767 45.4593 163.362L45.8926 162.962C48.0018 163.844 52.4494 165.08 55.6482 165.782L55.882 165.604C54.9696 165.368 53.9337 165.171 52.999 164.97C52.0858 164.752 51.2548 164.552 50.6855 164.358C50.1751 164.121 49.224 163.205 50.5224 163.277L49.0684 163.318C48.3587 163.075 47.7111 162.889 47.184 162.678C46.6569 162.468 46.1856 162.284 45.7574 162.122C44.8905 161.799 44.2566 161.486 43.6394 161.148C43.0166 160.818 42.3811 160.483 41.7169 159.981C41.378 159.737 40.9961 159.471 40.5695 159.16C40.1932 158.827 39.7723 158.451 39.2939 158.025L39.4317 158.47C38.3663 158.009 37.5307 157.4 37.7095 156.95C37.1044 156.462 36.7433 155.853 36.2889 155.3C36.0498 155.03 35.9454 154.705 35.7852 154.409C35.6434 154.109 35.5016 153.81 35.3749 153.519C35.2563 152.881 35.0882 152.305 35.0733 151.725C35.0894 151.431 35.1103 151.146 35.1279 150.874C35.1559 150.602 35.1648 150.351 35.2694 150.106L34.5987 149.974C34.6275 149.684 34.7976 149.255 35.0187 148.901C35.2086 148.547 35.2518 148.284 34.8172 148.263C34.7686 148.078 34.8189 147.885 34.8278 147.692L34.8727 147.109C35.2478 146.335 35.138 145.846 36.0731 144.963C36.1274 144.911 36.1816 144.858 36.2415 144.797C36.2207 144.797 36.2104 144.797 36.192 144.801C37.0147 143.939 36.8935 143.925 36.8153 143.876C36.7723 143.853 36.7428 143.818 36.8377 143.67C36.9407 143.517 37.2487 143.247 37.8112 142.742C38.2595 142.465 38.384 142.238 38.4703 141.94C38.5238 141.791 38.5861 141.62 38.7114 141.433C38.7728 141.337 38.8606 141.232 38.9643 141.119C39.0808 141.01 39.234 140.892 39.4055 140.771C40.0413 140.535 40.5965 140.302 41.2203 140.101C41.9223 139.72 42.4226 139.386 42.8885 139.065C43.3719 138.758 43.7828 138.449 44.2288 138.111C44.6596 137.763 45.2045 137.416 45.8547 136.978C46.5026 136.536 47.357 136.055 48.465 135.472C50.7138 134.555 51.8847 134.525 50.6113 135.604C52.3857 134.174 51.3868 134.864 53.974 133.41C54.4294 133.431 54.1518 133.604 53.61 134.052C56.0246 133.251 55.0428 133.23 56.8488 132.467C57.3205 131.852 57.8664 130.974 58.4806 130.698L57.734 130.863C58.7192 130.358 59.7587 129.857 60.8595 129.432C61.9588 128.984 63.0995 128.594 64.2856 128.288L64.1994 128.528C65.0314 128.197 65.8738 127.866 66.7074 127.557L66.8556 127.773C68.0474 127.344 69.2439 126.924 70.45 126.521L69.9587 126.605C70.3831 126.454 71.29 126.128 72.2871 125.816C73.2866 125.508 74.377 125.196 75.1627 125.027L75.0877 125.194C79.4787 124.382 83.2655 122.78 88.5093 121.524L87.7434 121.996C89.4383 121.905 88.349 121.4 90.4252 121.079L90.4267 121.443C92.4242 120.52 92.7893 121.041 94.004 120.959L93.5599 120.578C94.352 120.44 95.1376 120.328 95.9161 120.202C98.4916 119.85 97.3086 120.543 96.8474 120.873L98.7531 120.142L98.9428 120.53C100.417 119.765 100.197 120.387 102.548 119.717C102.674 119.854 102.056 120.047 102.803 119.996L106.839 118.778L104.445 119.408L104.975 118.71C107.551 117.844 108.181 118.284 109.954 117.842L108.703 118.218C111.543 117.631 111.589 117.886 113.095 117.789C112.656 117.741 111.982 117.679 113.143 117.42C113.982 117.256 113.498 117.581 114.255 117.531C114.613 117.068 116.699 116.536 118.433 116.459C118.385 116.524 118.326 116.585 118.193 116.645C118.685 116.505 118.966 116.358 119.729 116.338L119.058 116.89C119.642 116.653 120.207 116.438 120.78 116.219C121.747 116.214 123.383 115.67 123.113 116.01L122.493 116.18L130.18 115.26L130.119 115.624C131.112 115 134.243 115.254 134.274 114.644C135.591 114.769 140.083 113.726 138.913 114.538C143.904 114.035 146.962 113.01 152.885 112.721C154.74 113.136 160.714 112.426 164.549 112.15C165.508 112.035 166.429 111.924 167.32 111.817C168.204 111.715 169.045 111.647 169.87 111.571C171.521 111.418 173.084 111.272 174.662 111.119C176.235 110.973 177.811 110.833 179.482 110.68C181.137 110.553 182.931 110.339 184.812 110.267C186.832 110.604 189.671 110.452 192.581 110.261C195.486 110.079 198.51 109.792 200.714 110.069L202.211 109.765C203.631 110.023 205.634 110.004 207.802 109.987C208.881 109.979 210.012 109.97 211.121 109.997C211.675 110.01 212.224 110.033 212.767 110.063C213.305 110.103 213.812 110.182 214.317 110.256C215.467 110.169 216.046 110.152 216.295 110.154C216.107 110.13 215.853 110.062 215.891 109.865C217.033 110.05 219.637 109.997 219.197 110.367L218.859 110.39C218.411 110.764 222.721 110.374 223.86 110.761L223.395 110.322L225.685 110.491L225 110.542C227.722 110.384 229.865 110.547 231.837 110.682C233.796 110.83 235.534 111.028 237.244 111.231C238.103 111.331 238.96 111.426 239.819 111.525C240.694 111.616 241.587 111.702 242.483 111.832C244.301 112.062 246.308 112.241 248.704 112.34C247.183 112.6 250.651 112.352 250.399 112.82C251.294 113.253 252.371 113.354 253.46 113.363C254.001 113.372 254.563 113.341 255.1 113.341C255.62 113.35 256.131 113.359 256.609 113.402C256.628 113.38 256.668 113.359 256.803 113.342L259.884 113.961C257.545 114.178 262.529 113.908 260.408 114.07C262.357 114.543 264.499 114.991 266.769 115.427C267.927 115.621 269.037 115.898 270.166 116.17C271.31 116.435 272.467 116.703 273.635 116.972C275.978 117.505 278.351 118.056 280.717 118.593C282.991 119.227 285.192 119.917 287.316 120.597L287.07 120.354C289.233 121.03 292.123 121.678 293.571 122.388C294.941 123.163 297.353 123.328 297.992 123.535C299.953 123.955 301.074 124.957 300.357 124.661C301.318 124.967 302.348 125.174 303.433 125.442C303.979 125.573 304.537 125.727 305.104 125.916C305.393 126.011 305.676 126.114 305.966 126.231C306.243 126.36 306.516 126.503 306.797 126.659C307.196 127.413 313.861 129.198 313.443 129.665L313.511 129.639C314.881 130.489 316.501 131.06 318.046 131.74C319.562 132.442 321.117 133.157 322.533 134.113C322.533 134.113 322.439 134.112 322.298 134.08L330.21 136.222L330.004 133.92L325.766 129.815L321.926 127.834L317.845 126.057C315.114 124.884 312.416 123.676 309.657 122.529L303.126 119.696L299.858 118.277L298.224 117.566L296.502 116.941L287.744 114.248C287.007 114.031 286.298 113.788 285.539 113.588L283.242 113.025L278.654 111.894L274.059 110.767L272.916 110.485L271.726 110.252L269.332 109.797L259.751 107.984C258.715 107.958 257.643 107.98 256.596 107.971C254.799 107.513 252.786 107.132 250.649 106.789C249.578 106.622 248.479 106.459 247.363 106.305C246.806 106.23 246.239 106.155 245.68 106.076C245.096 106.028 244.51 105.974 243.916 105.926C241.558 105.726 239.181 105.531 236.868 105.301C235.712 105.186 234.579 105.058 233.473 104.922C232.372 104.776 231.29 104.627 230.216 104.513L229.764 104.878C227.236 104.765 227.568 104.539 226.997 104.438C224.06 104.295 221.111 104.148 218.153 104.005L217.043 103.956L215.903 103.947L213.629 103.924L209.078 103.886L204.536 103.849L202.268 103.834L199.957 103.894C196.884 103.974 193.818 104.05 190.767 104.134C189.243 104.179 187.741 104.188 186.205 104.268C184.668 104.347 183.143 104.427 181.619 104.511C178.581 104.657 175.566 104.808 172.59 104.955C171.11 105.004 169.597 105.145 168.12 105.238C166.637 105.34 165.162 105.438 163.698 105.535C160.78 105.713 157.904 105.891 155.075 106.061C152.99 106.005 146.136 106.861 144.532 106.738C142.593 107.065 140.656 107.338 138.698 107.63C136.731 107.943 134.762 108.234 132.795 108.507C128.864 109.063 124.991 109.497 121.184 109.996L121.495 109.902L117.86 110.509C117.718 110.495 117.723 110.446 117.85 110.395C115.742 110.887 113.129 111.265 110.425 111.589C109.077 111.749 107.704 111.9 106.359 112.047C105.03 112.186 103.626 112.376 102.364 112.541L102.682 112.443C95.1563 113.698 87.6433 115.357 80.0997 117.398C72.5554 119.456 64.9774 121.852 57.2803 124.924C53.4289 126.464 49.552 128.166 45.6295 130.184C41.7277 132.202 37.7436 134.545 33.9706 137.486L33.2661 138.033L32.5832 138.62L31.222 139.803C30.7808 140.208 30.3666 140.644 29.943 141.062C29.5344 141.489 29.0876 141.902 28.7245 142.356C27.9704 143.249 27.2036 144.139 26.6297 145.06C26.3313 145.519 25.9833 145.982 25.7447 146.436L25.0414 147.805C24.9273 148.032 24.8052 148.264 24.7094 148.487L24.469 149.148L24.0194 150.47C23.8229 151.307 23.6678 152.144 23.5686 152.951C23.565 153.707 23.4945 154.51 23.5708 155.221C23.679 155.916 23.7337 156.645 23.9161 157.305C24.3513 159.917 25.8195 162.054 27.6859 163.879C29.5618 165.721 31.9835 167.141 34.5895 168.388C39.8165 170.89 45.9093 172.551 51.77 174.356C52.2109 174.636 54.1584 175.144 56.8931 175.733C59.6501 176.287 63.1974 176.909 66.8454 177.374C74.1077 178.356 81.6837 178.831 82.9782 178.82L83.0324 178.768Z"
            fill="#08A4FF" />
        <path d="M124.693 179.968L124.582 179.971C124.42 180.225 124.647 180.13 124.693 179.968Z" fill="#08A4FF" />
        <path d="M72.7764 169.845C72.833 169.854 72.8896 169.863 72.9359 169.872L72.5684 169.461L72.7764 169.845Z"
            fill="#08A4FF" />
        <path
            d="M108.49 172.396C106.899 172.26 106.775 172.316 106.946 172.423C107.533 172.458 108.07 172.458 108.49 172.396Z"
            fill="#08A4FF" />
        <path
            d="M138.848 179.615C139.729 179.64 139.487 179.48 139.064 179.309C138.138 179.333 137.488 179.354 137.488 179.354C137.947 179.419 138.371 179.554 138.84 179.619L138.848 179.615Z"
            fill="#08A4FF" />
        <path d="M137.394 176.13L137.798 175.922C137.238 175.975 137.216 176.049 137.394 176.13Z" fill="#08A4FF" />
        <path d="M125.708 181.653C125.434 181.66 125.544 181.635 125.708 181.653V181.653Z" fill="#08A4FF" />
        <path
            d="M269.707 173.473C269.765 173.465 269.793 173.461 269.851 173.453C269.996 173.34 270.127 173.24 270.248 173.157L269.707 173.473Z"
            fill="#08A4FF" />
        <path
            d="M293.793 169.277C293.842 169.273 293.884 169.274 293.933 169.27C293.933 169.212 293.98 169.147 293.793 169.277Z"
            fill="#08A4FF" />
        <path
            d="M214.879 179.839C214.676 179.846 214.556 179.871 214.461 179.906C214.589 179.876 214.712 179.855 214.879 179.839Z"
            fill="#08A4FF" />
        <path
            d="M85.5138 180.11C85.5138 180.11 85.5657 180.11 85.6071 180.11C85.5433 180.088 85.474 180.074 85.4102 180.052L85.5138 180.11Z"
            fill="#08A4FF" />
        <path
            d="M86.0357 180.022C86.4751 180.109 85.8267 180.112 85.6113 180.115C86.0643 180.246 86.5779 180.298 87.141 180.29C87.216 180.181 86.2047 180.124 86.0357 180.022Z"
            fill="#08A4FF" />
        <path d="M17.3828 170.862L17.6053 170.873C17.5176 170.863 17.445 170.863 17.3828 170.862Z" fill="#08A4FF" />
        <path
            d="M213.377 186.588C213.252 186.605 213.119 186.625 213.012 186.638C213.194 186.63 213.298 186.614 213.377 186.588Z"
            fill="#08A4FF" />
        <path d="M27.547 173.028L27.7857 172.898C27.6361 172.945 27.5748 172.984 27.547 173.028Z" fill="#08A4FF" />
        <path d="M270.247 173.157L270.457 173.032C270.393 173.066 270.322 173.105 270.247 173.157Z" fill="#08A4FF" />
        <path
            d="M316.224 162.631C316.239 162.697 316.289 162.732 316.353 162.755C316.377 162.742 316.406 162.737 316.414 162.733L316.224 162.631Z"
            fill="#08A4FF" />
        <path
            d="M308.199 116.718C308.199 116.718 308.159 116.796 308.152 116.84L308.706 116.7C308.499 116.681 308.328 116.688 308.207 116.713L308.199 116.718Z"
            fill="#08A4FF" />
        <path
            d="M343.662 148.258C343.647 148.232 343.66 148.179 343.624 148.17C343.426 148.318 343.153 148.596 342.724 148.966C342.526 149.153 342.291 149.366 342.042 149.593C341.775 149.823 341.486 150.071 341.183 150.332L341.368 150.54C342.207 149.783 342.999 149.017 343.651 148.258L343.662 148.258Z"
            fill="#08A4FF" />
        <path
            d="M349.248 124.235C349.675 124.888 350.072 125.563 350.434 126.251C347.18 124.038 344.656 122.656 342.183 121.389C339.694 120.147 337.19 119.108 333.524 118.231L334.051 118.213C333.638 117.964 332.905 118.173 331.141 117.776C329.348 117.401 326.565 116.399 321.641 114.018L321.707 113.949C321.29 113.866 321.168 114.001 320.529 113.623L322.149 114.536C320.777 114.424 319.428 114.505 317.762 114.193C317.491 114.037 317.502 113.866 317.57 113.743C316.204 113.491 314.839 113.238 313.457 113.011L312.626 112.297C311.158 112.312 310.885 113.39 308.035 112.224C308.706 113.139 306.03 112.335 306.146 112.758C306.052 112.643 305.773 112.452 305.566 112.279C303.515 111.998 299.558 111.592 298.324 111.811C298.324 111.811 299.997 112.479 301.829 113.306C303.666 114.125 305.654 115.107 306.368 115.662C303.759 114.982 305.569 115.616 305.911 115.943L306.239 115.805C307.745 116.279 307.37 116.711 308.094 116.98C308.127 116.945 308.134 116.901 308.149 116.853L307.994 116.891C307.986 116.799 308.076 116.756 308.196 116.731C308.258 116.634 308.392 116.578 308.823 116.687L308.695 116.717C309.436 116.789 310.55 117.092 311.042 117.219L310.74 117.577C311.645 117.361 313.434 118.034 315.169 118.834C316.903 119.634 318.551 120.561 319.32 120.761C320.462 121.591 322.894 121.545 324.562 122.319C327.441 123.309 325.558 123.262 326.748 124.01C328.366 124.805 326.779 123.496 327.535 123.709L329.223 124.899C327.923 124.52 328.403 124.95 328.495 125.157C330.31 125.839 332.444 127.53 333.682 127.11C335.661 128.417 335.342 128.686 336.256 129.173C336.079 128.903 335.569 128.495 335.713 128.36C336.274 129.072 336.22 128.496 335.925 128.257C336.761 128.448 338.201 129.579 339.373 130.695C340.57 131.799 341.515 132.856 342.07 132.623L341.906 132.74C342.816 132.458 343.052 131.674 344.149 132.021L344.346 132.633C344.69 132.772 344.994 132.933 345.321 133.08C345.564 133.662 345.151 133.566 345.068 133.623C346.461 134.477 347.352 136.351 347.766 138.009C348.018 137.559 348.214 137.122 348.411 136.667C348.611 136.216 348.811 135.748 348.951 135.301C349.138 136.084 349.202 137.248 349.211 138.219C349.216 139.198 349.143 139.996 349.483 140.034C349.292 140.424 348.993 140.825 348.753 141.201C347.903 142.945 347.723 143.431 347.875 143.731C347.96 144.022 348.269 144.077 347.755 144.766L346.925 145.616C346.661 145.89 346.324 146.164 346.042 146.425C346.226 146.154 346.451 145.884 346.606 145.617L347.089 144.814C345.838 146.428 345.084 147.036 343.627 148.157C343.627 148.157 343.623 148.17 343.634 148.17C343.736 148.092 343.813 148.044 343.855 148.045L343.671 148.258C343.71 148.386 343.616 148.671 343.287 149.054C343.133 149.246 342.934 149.468 342.705 149.712C342.473 149.952 342.166 150.204 341.85 150.478C340.916 151.23 340.103 151.939 339.036 152.712C337.978 153.484 336.646 154.321 334.712 155.209L334.044 156.108C333.068 156.574 332.076 157.01 331.089 157.436L330.94 157.123C332.324 156.401 334.288 155.302 336.179 154.049C338.087 152.809 339.897 151.445 341.212 150.328L341.093 150.204C339.57 151.509 337.597 153.047 336.308 153.831C335.628 154.176 333.837 154.851 334.829 153.959C334.526 154.294 334.166 154.621 333.83 154.952C330.523 156.887 328.681 157.754 326.852 158.609C324.992 159.423 323.063 160.224 319.187 161.566L319.883 161.48C319.125 161.833 318.359 162.191 317.731 162.441C317.097 162.682 316.603 162.818 316.373 162.755C311.697 164.468 306.794 165.762 303.816 166.172L303.092 166.816C302.094 167.089 300.724 166.81 300.129 167.577C299.406 167.844 298.689 168.101 297.965 168.345C296.612 168.668 295.722 169.139 294.233 169.25C294.143 169.254 294.044 169.261 293.955 169.27C293.952 169.283 293.965 169.287 293.972 169.3C290.94 169.82 293.906 169.713 290.428 170.246C289.376 170.171 289.017 171.108 287.308 171.384L285.757 171.112C282.755 171.364 282.026 172.113 277.512 173.002C275.437 173.134 274.604 172.758 276.194 172.016C274.029 172.956 275.168 172.561 272.471 173.298C272.16 173.125 272.455 173.022 273.115 172.698C270.924 172.807 271.616 173.168 269.881 173.453C269.203 173.991 268.338 174.814 267.762 174.932L268.374 174.977C266.439 175.501 264.382 175.914 262.335 176.003L262.512 175.758C261.732 175.919 260.968 176.053 260.195 176.187L260.179 175.91L256.914 176.419L257.32 176.444C256.552 176.57 254.008 177.018 252.668 177.02L252.792 176.85C249.051 176.784 245.447 177.848 240.794 178.31L241.564 177.921C240.149 177.747 240.88 178.469 239.083 178.485L239.189 178.09C237.264 178.786 237.108 178.174 236.078 178.065L236.341 178.55L234.259 178.612C231.997 178.628 233.158 178.067 233.636 177.768L231.825 178.31L231.754 177.875C230.309 178.504 230.63 177.897 228.437 178.326C228.359 178.163 228.926 178.027 228.273 178.004L224.571 178.887L226.754 178.457L226.154 179.142C223.773 179.794 223.333 179.268 221.725 179.557L222.87 179.29C220.316 179.625 220.35 179.326 219.041 179.272C219.402 179.367 219.958 179.516 218.919 179.657C218.169 179.739 218.652 179.449 218.005 179.417C217.598 179.866 215.715 180.201 214.229 180.088C214.287 180.023 214.349 179.966 214.478 179.919C214.033 180.012 213.76 180.137 213.107 180.075L213.792 179.566L212.18 180.098C211.349 180.012 209.829 180.425 210.135 180.094L210.708 179.971C208.444 180.04 206.179 180.127 203.926 180.179L204.049 179.798C203.07 180.352 200.444 179.755 200.29 180.403C199.201 180.109 195.075 180.856 196.254 180.098C191.804 180.21 188.978 180.995 183.748 180.811C182.165 180.271 176.753 180.626 173.297 180.668C166.303 181.133 161.815 181.442 154.793 181.78C151.175 181.008 144.314 182.193 140.214 181.694L138.81 181.999C137.507 181.747 135.639 181.766 133.628 181.789C131.626 181.79 129.482 181.777 127.604 181.511C126.52 181.625 125.971 181.66 125.727 181.667C125.903 181.686 126.143 181.749 126.103 181.942C125.029 181.788 122.568 181.913 122.992 181.534L123.315 181.502C123.734 181.132 119.7 181.573 118.635 181.209L119.064 181.638L116.926 181.502L117.564 181.441C112.506 181.764 109.184 181.482 105.912 181.235C102.635 180.998 99.4992 180.677 94.8437 180.81C96.3066 180.462 92.9661 180.926 93.1793 180.463C91.3994 179.75 89.0511 180.293 87.1417 180.312C87.1225 180.334 87.085 180.36 86.9542 180.385L83.8661 180.096C86.1545 179.672 81.2699 180.391 83.3421 180.044C75.5694 178.939 64.7537 178.371 55.8533 176.976L56.1483 177.158C53.8434 176.867 50.8917 176.601 49.3358 176.149C47.7775 175.693 45.2738 175.949 44.5824 175.873C42.519 175.799 41.1906 175.081 41.9745 175.232C39.9249 174.974 37.6541 175.126 35.0495 174.473C34.4747 173.888 27.236 173.521 27.556 173.045L27.4922 173.08C24.3095 172.083 20.5649 171.973 17.1366 170.904C17.1366 170.904 17.2307 170.888 17.3838 170.884L8.74062 170.497L9.52065 172.431L14.8729 175.145L23.8752 176.918C26.9289 177.448 29.9499 178.013 33.0204 178.517L40.1126 180.042L47.295 181.467C59.4015 183.235 71.8136 184.616 84.4963 185.638L87.4992 185.465C90.9748 186.126 95.2872 186.408 99.7001 186.646C104.149 186.836 108.662 187.049 112.617 187.473L113.047 187.103C115.39 187.179 115.071 187.41 115.603 187.497C126.487 187.886 137.723 187.992 148.825 187.868C159.947 187.745 170.758 187.505 180.699 187.583C182.477 187.834 188.517 187.533 189.885 187.79C196.788 187.101 203.821 186.86 210.481 186.634L210.195 186.698L213.411 186.461C213.521 186.493 213.508 186.545 213.395 186.584C217.172 186.031 222.617 186.098 226.951 185.98L226.668 186.048C239.57 185.228 252.395 183.81 265.488 181.78C267.111 181.557 268.777 181.241 270.415 180.969L275.368 180.128C277.034 179.812 278.7 179.497 280.375 179.177L282.878 178.71C283.718 178.546 284.564 178.355 285.409 178.182C292.12 176.833 299.133 175.222 306.333 173.196C313.027 171.53 320.485 168.874 328.241 165.245C332.118 163.429 336.072 161.354 340.038 158.902C341.03 158.313 342.023 157.632 343.009 156.995C343.995 156.3 344.987 155.637 345.955 154.889C346.94 154.173 347.894 153.382 348.853 152.599C349.788 151.773 350.73 150.96 351.611 150.071C351.797 149.919 352.089 149.658 352.445 149.305C352.786 148.944 353.206 148.482 353.685 147.937C354.161 147.388 354.624 146.737 355.165 146.022C355.413 145.659 355.64 145.279 355.889 144.882C356.138 144.484 356.388 144.069 356.592 143.645C357.521 141.932 358.105 140.04 358.305 138.237C358.427 137.32 358.37 136.472 358.308 135.616C358.174 134.815 358.024 134.006 357.759 133.288C357.253 131.822 356.511 130.53 355.647 129.469C354.807 128.377 353.865 127.496 353.005 126.747C351.249 125.279 349.728 124.454 349.274 124.244L349.248 124.235Z"
            fill="#08A4FF" />
        <path d="M317.567 113.739L317.66 113.757C317.876 113.509 317.663 113.573 317.567 113.739Z" fill="#08A4FF" />
        <path d="M347.788 138.106C347.78 138.071 347.771 138.036 347.762 138L347.448 138.582L347.788 138.106Z"
            fill="#08A4FF" />
        <path
            d="M327.324 124.844C328.457 125.315 328.572 125.28 328.499 125.126C328.073 124.969 327.674 124.86 327.324 124.844Z"
            fill="#08A4FF" />
        <path
            d="M305.834 111.974C305.112 111.823 305.264 112.026 305.559 112.266C306.329 112.373 306.873 112.443 306.873 112.443C306.511 112.308 306.206 112.108 305.832 111.969L305.834 111.974Z"
            fill="#08A4FF" />
        <path d="M305.913 115.926L305.514 116.085C305.982 116.111 306.032 116.032 305.913 115.926Z" fill="#08A4FF" />
    </g>
    <defs>
        <clipPath id="clip0_2_4089">
            <rect width="324.955" height="165.768" fill="white" transform="translate(0 154.869) rotate(-28.4626)" />
        </clipPath>
    </defs>
</svg>