<svg width="146" height="146" viewBox="0 0 146 146" fill="none" xmlns="http://www.w3.org/2000/svg">
<path fill-rule="evenodd" clip-rule="evenodd" d="M43.7452 120.471L37.4321 131.304C36.955 132.123 37.6001 133.021 38.4184 133.021H107.406C108.224 133.021 108.869 132.123 108.392 131.304L102.079 120.471H43.7452ZM143.261 103.616H2.56332V108.569C2.56332 112.609 5.86886 115.914 9.90835 115.914H135.915C139.955 115.914 143.26 112.609 143.26 108.569V103.616H143.261ZM135.915 12.8037C139.955 12.8037 143.261 16.1087 143.261 20.1487V99.0583H65.6595C63.6322 91.4333 56.6509 85.7715 48.4104 85.7715C40.17 85.7715 33.1884 91.433 31.1613 99.0583H2.56332V20.149C2.56332 16.109 5.86886 12.804 9.90864 12.804H135.915V12.8037ZM68.3094 36.4013V45.5258L77.0406 50.567V31.3604L68.3094 36.4013ZM93.95 28.3818V54.6805H98.98L99.6132 62.9111L109.11 54.6805H133.813V28.3818H93.95ZM104.483 47.9746H117.468C118.726 47.9746 119.747 46.9544 119.747 45.6961C119.747 44.4378 118.726 43.4176 117.468 43.4176H104.483C103.225 43.4176 102.205 44.4378 102.205 45.6961C102.205 46.9544 103.225 47.9746 104.483 47.9746ZM104.483 39.9609H123.773C125.031 39.9609 126.051 38.9407 126.051 37.6824C126.051 36.4241 125.031 35.4039 123.773 35.4039H104.483C103.225 35.4039 102.205 36.4241 102.205 37.6824C102.205 38.9407 103.225 39.9609 104.483 39.9609ZM19.7805 28.3818V53.5453H63.7527V28.3818H19.7805ZM46.8349 40.9634L36.6981 35.1108V46.8157L46.8349 40.9634ZM48.4104 65.553C43.0842 65.553 38.7664 69.8707 38.7664 75.1967C38.7664 80.523 43.0842 84.8405 48.4104 84.8405C53.7367 84.8405 58.0545 80.5227 58.0545 75.1967C58.0545 69.8704 53.7367 65.553 48.4104 65.553Z" fill="url(#paint0_linear_1781_279)"/>
<defs>
<linearGradient id="paint0_linear_1781_279" x1="72.912" y1="12.8037" x2="72.912" y2="133.021" gradientUnits="userSpaceOnUse">
<stop stop-color="#487FD5"/>
<stop offset="1" stop-color="#B47DDA"/>
</linearGradient>
</defs>
</svg>
