<svg width="146" height="146" viewBox="0 0 146 146" fill="none" xmlns="http://www.w3.org/2000/svg">
<g clip-path="url(#clip0_1781_281)">
<path d="M120.384 36.4326H117.2V61.1786C117.2 79.5124 102.285 94.4282 83.9507 94.4282H36.433V97.6127C36.433 111.257 47.5343 122.358 61.1789 122.358H112.013L138.156 144.144C138.935 144.793 139.902 145.129 140.879 145.129C143.216 145.129 145.13 143.233 145.13 140.877V61.1786C145.13 47.5129 134.074 36.4326 120.384 36.4326Z" fill="url(#paint0_linear_1781_281)"/>
<path d="M108.697 61.1789V24.746C108.697 11.0559 97.6175 0 83.9507 0H24.746C11.0559 0 0 11.0792 0 24.746V104.445C0 106.799 1.91333 108.697 4.25074 108.697C5.22733 108.697 6.19507 108.36 6.97347 107.71L33.1168 85.9249H83.9507C97.5953 85.9249 108.697 74.8247 108.697 61.1789ZM54.3483 67.7084C52.0009 67.7084 50.0965 65.8039 50.0965 63.4566C50.0965 61.1092 52.0009 59.2047 54.3483 59.2047C56.6946 59.2047 58.6002 61.1092 58.6002 63.4566C58.6002 65.8039 56.6946 67.7084 54.3483 67.7084ZM58.6002 48.904V49.7942C58.6002 52.1416 56.6957 54.046 54.3483 54.046C51.9998 54.046 50.0965 52.1416 50.0965 49.7942V45.2401C50.0965 42.8916 51.9998 40.9882 54.3483 40.9882C58.2813 40.9882 61.4812 37.7872 61.4812 33.8542C61.4812 29.9201 58.2813 26.7202 54.3483 26.7202C52.4394 26.7202 50.649 27.462 49.3026 28.8085C47.9562 30.1549 47.2143 31.9453 47.2143 33.8487C47.2143 36.1971 45.3109 38.1038 42.9624 38.1038C40.614 38.1038 38.7106 36.2016 38.7106 33.8542V33.8487C38.7106 29.6743 40.3372 25.748 43.2891 22.7961C46.2421 19.843 50.1673 18.2165 54.3428 18.2165C62.9705 18.2165 69.9849 25.232 69.9849 33.8542C69.9849 41.0037 65.1628 47.0482 58.6002 48.904Z" fill="url(#paint1_linear_1781_281)"/>
</g>
<defs>
<linearGradient id="paint0_linear_1781_281" x1="90.7813" y1="36.4326" x2="90.7813" y2="145.129" gradientUnits="userSpaceOnUse">
<stop stop-color="#487FD5"/>
<stop offset="1" stop-color="#B47DDA"/>
</linearGradient>
<linearGradient id="paint1_linear_1781_281" x1="54.3483" y1="0" x2="54.3483" y2="108.697" gradientUnits="userSpaceOnUse">
<stop stop-color="#487FD5"/>
<stop offset="1" stop-color="#B47DDA"/>
</linearGradient>
<clipPath id="clip0_1781_281">
<rect width="145.13" height="145.13" fill="white"/>
</clipPath>
</defs>
</svg>
