<svg width="169" height="169" viewBox="0 0 169 169" fill="none" xmlns="http://www.w3.org/2000/svg">
<path d="M84.0224 149.665C116.319 149.665 142.576 123.277 142.576 90.8492C142.576 76.5391 137.455 63.2794 128.922 53.1704L132.467 49.6257C134.567 47.5252 134.567 44.243 132.467 42.1425C130.366 40.0419 127.084 40.0419 124.983 42.1425L121.439 45.6872C112.643 38.0726 101.483 33.2151 89.2738 32.1648V28.8827H91.3744C94.2626 28.8827 96.6258 26.5196 96.6258 23.6313C96.6258 20.743 94.2626 18.3799 91.3744 18.3799H76.6704C73.7822 18.3799 71.419 20.743 71.419 23.6313C71.419 26.5196 73.7822 28.8827 76.6704 28.8827H78.771V32.1648C66.5615 33.2151 55.4023 38.0726 46.4749 45.6872L42.9302 42.0112C40.8296 39.9106 37.5475 39.9106 35.447 42.0112C33.3464 44.1117 33.3464 47.3939 35.447 49.4944L38.9917 53.0391C30.4581 63.2794 25.338 76.4079 25.338 90.7179C25.4693 123.277 51.7263 149.665 84.0224 149.665ZM84.0224 39.7793C111.986 39.7793 134.698 62.6229 134.698 90.8492C134.698 119.075 111.986 141.788 84.0224 141.788C56.0587 141.788 33.3464 118.944 33.3464 90.8492C33.3464 62.7542 56.0587 39.7793 84.0224 39.7793Z" fill="url(#paint0_linear_1781_288)"/>
<path d="M84.0223 130.103C105.684 130.103 123.145 112.511 123.145 90.7175C123.145 68.9242 105.553 51.332 84.0223 51.332C62.4916 51.332 44.8994 68.9242 44.8994 90.7175C44.8994 112.511 62.3603 130.103 84.0223 130.103ZM80.0838 81.5276V62.8851C80.0838 60.6533 81.7905 58.9466 84.0223 58.9466C86.2542 58.9466 87.9609 60.6533 87.9609 62.8851V81.5276C91.5056 83.103 94 86.6477 94 90.7175C94 96.2315 89.5363 100.695 84.0223 100.695C78.5084 100.695 74.0447 96.2315 74.0447 90.7175C74.0447 86.6477 76.5391 83.103 80.0838 81.5276Z" fill="url(#paint1_linear_1781_288)"/>
<defs>
<linearGradient id="paint0_linear_1781_288" x1="83.9568" y1="18.3799" x2="83.9568" y2="149.665" gradientUnits="userSpaceOnUse">
<stop stop-color="#487FD5"/>
<stop offset="1" stop-color="#B47DDA"/>
</linearGradient>
<linearGradient id="paint1_linear_1781_288" x1="84.0223" y1="51.332" x2="84.0223" y2="130.103" gradientUnits="userSpaceOnUse">
<stop stop-color="#487FD5"/>
<stop offset="1" stop-color="#B47DDA"/>
</linearGradient>
</defs>
</svg>
