<svg width="25" height="24" viewBox="0 0 25 24" fill="none" xmlns="http://www.w3.org/2000/svg">
<g clip-path="url(#clip0_1748_258)">
<path d="M8.19241 11.7909L9.50245 10.5194C9.78291 10.2471 9.78291 9.80659 9.50245 9.53438L7.64256 7.72918C7.3621 7.45697 6.90819 7.45697 6.62773 7.72918L5.31769 9.0007L8.19241 11.7909Z" fill="url(#paint0_linear_1748_258)"/>
<path d="M14.4806 14.3661C14.2001 14.0939 13.7462 14.0939 13.4658 14.3661L12.1557 15.6377L15.0305 18.4278L16.3405 17.1563C16.621 16.8841 16.621 16.4436 16.3405 16.1713L14.4806 14.3661Z" fill="url(#paint1_linear_1748_258)"/>
<path d="M14.798 6.80167C14.7684 6.78018 14.7389 6.75511 14.7168 6.72287C14.0636 5.78804 12.9823 5.22929 11.8199 5.21497C11.8052 5.21497 11.7941 5.21855 11.7793 5.21855C11.7646 5.21855 11.7535 5.21497 11.7387 5.21497C10.5763 5.22929 9.49504 5.78804 8.84187 6.72287C8.81973 6.75511 8.7902 6.7766 8.76068 6.80167C9.48028 7.64696 10.5615 8.1878 11.7793 8.1878C12.9971 8.1878 14.0784 7.64696 14.798 6.80167Z" fill="url(#paint2_linear_1748_258)"/>
<path d="M10.4582 4.71706C10.3475 4.62035 10.2479 4.50932 10.1593 4.38396C9.93788 4.06518 9.81979 3.69626 9.81979 3.31302C9.81979 2.26357 10.6981 1.41112 11.7793 1.41112C12.8606 1.41112 13.7389 2.26357 13.7389 3.31302C13.7389 3.69268 13.6208 4.06518 13.3994 4.38037C13.3145 4.50215 13.2111 4.61319 13.1004 4.71348C13.9418 4.97852 14.6799 5.49071 15.215 6.19631C15.5176 5.65547 15.691 5.03941 15.691 4.38396C15.691 2.28506 13.9381 0.58374 11.7756 0.58374C9.61314 0.58374 7.86026 2.28506 7.86026 4.38396C7.86026 5.043 8.03739 5.65547 8.3363 6.19631C8.87877 5.49429 9.62052 4.98211 10.4582 4.71706Z" fill="url(#paint3_linear_1748_258)"/>
<path d="M11.7535 4.50925H11.7793C11.7793 4.50925 11.7978 4.50925 11.8052 4.50925C12.2037 4.50209 12.5727 4.30868 12.7978 3.9899C12.9381 3.78933 13.0119 3.55651 13.0119 3.31654C13.0119 2.6575 12.4583 2.12024 11.7793 2.12024C11.1003 2.12024 10.5468 2.6575 10.5468 3.31654C10.5468 3.55651 10.6206 3.78933 10.7608 3.9899C10.9859 4.30868 11.355 4.50209 11.7535 4.50925Z" fill="url(#paint4_linear_1748_258)"/>
<path d="M20.4072 12.8619H20.4293H20.4515C20.7762 12.8548 21.0788 12.6972 21.2633 12.4357C21.3777 12.2709 21.4368 12.0811 21.4368 11.8841C21.4368 11.3433 20.9829 10.9027 20.4256 10.9027C19.8684 10.9027 19.4182 11.3433 19.4182 11.8841C19.4182 12.0811 19.4772 12.2709 19.5953 12.4357C19.7798 12.6972 20.0824 12.8548 20.4072 12.8619Z" fill="url(#paint5_linear_1748_258)"/>
<path d="M20.4293 9.53455C18.5694 9.53455 17.0601 10.9995 17.0601 12.8047C17.0601 13.3527 17.204 13.8613 17.4476 14.3162C17.8978 13.7323 18.5067 13.3025 19.1968 13.0661C19.123 12.9945 19.0529 12.9157 18.9938 12.8297C18.7982 12.5468 18.6949 12.2173 18.6949 11.8806C18.6949 10.9529 19.4736 10.1936 20.4293 10.1936C21.3851 10.1936 22.1675 10.9493 22.1675 11.8806C22.1675 12.2173 22.0641 12.5468 21.8685 12.8262C21.8095 12.9121 21.7394 12.9909 21.6619 13.0626C22.3557 13.2989 22.9645 13.7288 23.4111 14.3126C23.6546 13.8613 23.7985 13.3491 23.7985 12.8011C23.7985 10.9995 22.2892 9.53455 20.4293 9.53455Z" fill="url(#paint6_linear_1748_258)"/>
<path d="M20.4662 13.5675C20.4551 13.5675 20.4441 13.5711 20.433 13.5711C20.4219 13.5711 20.4109 13.5675 20.3998 13.5675C19.4145 13.5783 18.503 14.0546 17.9494 14.8426C17.9273 14.8748 17.8978 14.8999 17.8683 14.9214C18.4882 15.627 19.4071 16.0747 20.433 16.0747C21.4626 16.0747 22.3815 15.627 23.0014 14.9214C22.9719 14.8999 22.9424 14.8748 22.9202 14.8426C22.363 14.051 21.4478 13.5783 20.4662 13.5675Z" fill="url(#paint7_linear_1748_258)"/>
<path d="M18.2521 6.77642C18.2373 6.79433 18.2189 6.80507 18.2004 6.8194C18.6986 7.30293 19.3813 7.60022 20.1415 7.60022C20.9017 7.60022 21.5881 7.29935 22.0826 6.81582C22.0641 6.80149 22.0457 6.79074 22.0309 6.77284C21.5733 6.19976 20.8869 5.87024 20.1415 5.87024C19.3961 5.87024 18.7097 6.20334 18.2521 6.77642Z" fill="url(#paint8_linear_1748_258)"/>
<path d="M19.0196 5.37253C18.9827 5.33313 18.9495 5.29015 18.9163 5.24359C18.7465 5.00003 18.658 4.72423 18.658 4.43411C18.658 3.64255 19.3222 2.99784 20.1378 2.99784C20.9533 2.99784 21.6176 3.64255 21.6176 4.43411C21.6176 4.72065 21.529 5.00003 21.3629 5.24359C21.3297 5.29015 21.2965 5.33313 21.2596 5.37253C21.743 5.5552 22.1748 5.85248 22.518 6.25005C22.7431 5.86323 22.8833 5.41909 22.8833 4.94272C22.8833 3.47063 21.6545 2.28149 20.1415 2.28149C18.6248 2.28149 17.3996 3.47421 17.3996 4.94272C17.3996 5.41909 17.5361 5.86323 17.7649 6.25005C18.1081 5.85248 18.5362 5.5552 19.0196 5.37253Z" fill="url(#paint9_linear_1748_258)"/>
<path d="M20.1415 5.16838C20.3924 5.16838 20.6249 5.05018 20.7651 4.8496C20.85 4.72782 20.8943 4.58456 20.8943 4.4377C20.8943 4.03297 20.5548 3.70703 20.1415 3.70703C19.7282 3.70703 19.3887 4.03655 19.3887 4.4377C19.3887 4.58456 19.433 4.72782 19.5215 4.8496C19.6618 5.05018 19.8942 5.16838 20.1415 5.16838Z" fill="url(#paint10_linear_1748_258)"/>
<path d="M12.3771 13.5387C12.4214 13.5566 12.4694 13.5673 12.5174 13.5673C12.6576 13.5673 12.7941 13.4849 12.8532 13.3524L13.5875 11.6439C13.6355 11.5365 13.6208 11.4111 13.5543 11.3108C13.4879 11.2141 13.3735 11.1532 13.2517 11.1532H12.3107L12.7757 9.98559C12.8495 9.80292 12.7535 9.59876 12.569 9.53071C12.3845 9.45907 12.1705 9.5522 12.1004 9.73129L11.4398 11.3753C11.3955 11.4828 11.4103 11.6045 11.4804 11.7012C11.5468 11.7979 11.6612 11.8553 11.7793 11.8553H12.7056L12.1816 13.0766C12.1041 13.2557 12.1926 13.4634 12.3771 13.5387Z" fill="url(#paint11_linear_1748_258)"/>
<path d="M3.72715 5.94915C3.80464 6.03511 3.92273 6.08167 4.04451 6.06734C4.1626 6.05302 4.26593 5.98496 4.32128 5.88109L4.74935 5.08237L5.62026 6.09958C5.69406 6.18196 5.79739 6.22852 5.90072 6.22852C5.9819 6.22852 6.06309 6.20345 6.1332 6.14614C6.2882 6.02078 6.31034 5.79871 6.18118 5.64828L4.9597 4.22275C4.8822 4.13321 4.76042 4.08307 4.64234 4.09739C4.52056 4.10814 4.41354 4.17977 4.35819 4.28364L3.92273 5.09311L3.07397 4.1547C2.94112 4.00785 2.71233 3.99352 2.56102 4.12246C2.40972 4.25141 2.39496 4.47347 2.52781 4.62033L3.72715 5.94915Z" fill="url(#paint12_linear_1748_258)"/>
<path d="M19.385 18.6606L18.4772 18.9114L18.5953 17.6649C18.6137 17.4715 18.4661 17.2996 18.2668 17.2817C18.0676 17.2638 17.8904 17.407 17.872 17.6004L17.7059 19.3591C17.6948 19.4737 17.7428 19.5883 17.8351 19.6635C17.9273 19.7387 18.0528 19.7638 18.1672 19.7316L19.0566 19.4844L18.8942 20.7989C18.872 20.9923 19.0123 21.1678 19.2115 21.1893C19.2263 21.1893 19.2411 21.1929 19.2558 21.1929C19.4367 21.1929 19.5953 21.0604 19.6175 20.8813L19.8426 19.0403C19.8573 18.9221 19.8094 18.8075 19.7171 18.7287C19.6285 18.657 19.5031 18.6284 19.385 18.6606Z" fill="url(#paint13_linear_1748_258)"/>
<path d="M9.57255 18.145C8.52083 19.1657 6.81223 19.2804 5.69408 18.3312C5.05197 17.7868 4.73461 17.0346 4.73461 16.2789C4.73092 15.584 5.004 14.8892 5.55385 14.3555L7.68314 12.2888L4.80842 9.49866L2.56842 11.6728C-0.114401 14.2767 -0.114401 18.496 2.56842 21.0963L2.57211 21.0999C5.25494 23.7038 9.60207 23.7038 12.2812 21.0999L14.5212 18.9258L11.6465 16.1356L9.57255 18.145Z" fill="url(#paint14_linear_1748_258)"/>
</g>
<defs>
<linearGradient id="paint0_linear_1748_258" x1="7.51524" y1="7.52502" x2="7.51524" y2="11.7909" gradientUnits="userSpaceOnUse">
<stop stop-color="#487FD5"/>
<stop offset="1" stop-color="#B47DDA"/>
</linearGradient>
<linearGradient id="paint1_linear_1748_258" x1="14.3533" y1="14.162" x2="14.3533" y2="18.4278" gradientUnits="userSpaceOnUse">
<stop stop-color="#487FD5"/>
<stop offset="1" stop-color="#B47DDA"/>
</linearGradient>
<linearGradient id="paint2_linear_1748_258" x1="11.7793" y1="5.21497" x2="11.7793" y2="8.1878" gradientUnits="userSpaceOnUse">
<stop stop-color="#487FD5"/>
<stop offset="1" stop-color="#B47DDA"/>
</linearGradient>
<linearGradient id="paint3_linear_1748_258" x1="11.7756" y1="0.58374" x2="11.7756" y2="6.19631" gradientUnits="userSpaceOnUse">
<stop stop-color="#487FD5"/>
<stop offset="1" stop-color="#B47DDA"/>
</linearGradient>
<linearGradient id="paint4_linear_1748_258" x1="11.7793" y1="2.12024" x2="11.7793" y2="4.50925" gradientUnits="userSpaceOnUse">
<stop stop-color="#487FD5"/>
<stop offset="1" stop-color="#B47DDA"/>
</linearGradient>
<linearGradient id="paint5_linear_1748_258" x1="20.4275" y1="10.9027" x2="20.4275" y2="12.8619" gradientUnits="userSpaceOnUse">
<stop stop-color="#487FD5"/>
<stop offset="1" stop-color="#B47DDA"/>
</linearGradient>
<linearGradient id="paint6_linear_1748_258" x1="20.4293" y1="9.53455" x2="20.4293" y2="14.3162" gradientUnits="userSpaceOnUse">
<stop stop-color="#487FD5"/>
<stop offset="1" stop-color="#B47DDA"/>
</linearGradient>
<linearGradient id="paint7_linear_1748_258" x1="20.4348" y1="13.5675" x2="20.4348" y2="16.0747" gradientUnits="userSpaceOnUse">
<stop stop-color="#487FD5"/>
<stop offset="1" stop-color="#B47DDA"/>
</linearGradient>
<linearGradient id="paint8_linear_1748_258" x1="20.1415" y1="5.87024" x2="20.1415" y2="7.60022" gradientUnits="userSpaceOnUse">
<stop stop-color="#487FD5"/>
<stop offset="1" stop-color="#B47DDA"/>
</linearGradient>
<linearGradient id="paint9_linear_1748_258" x1="20.1415" y1="2.28149" x2="20.1415" y2="6.25005" gradientUnits="userSpaceOnUse">
<stop stop-color="#487FD5"/>
<stop offset="1" stop-color="#B47DDA"/>
</linearGradient>
<linearGradient id="paint10_linear_1748_258" x1="20.1415" y1="3.70703" x2="20.1415" y2="5.16838" gradientUnits="userSpaceOnUse">
<stop stop-color="#487FD5"/>
<stop offset="1" stop-color="#B47DDA"/>
</linearGradient>
<linearGradient id="paint11_linear_1748_258" x1="12.5152" y1="9.50647" x2="12.5152" y2="13.5673" gradientUnits="userSpaceOnUse">
<stop stop-color="#487FD5"/>
<stop offset="1" stop-color="#B47DDA"/>
</linearGradient>
<linearGradient id="paint12_linear_1748_258" x1="4.35123" y1="4.03442" x2="4.35123" y2="6.22852" gradientUnits="userSpaceOnUse">
<stop stop-color="#487FD5"/>
<stop offset="1" stop-color="#B47DDA"/>
</linearGradient>
<linearGradient id="paint13_linear_1748_258" x1="18.7748" y1="17.2802" x2="18.7748" y2="21.1929" gradientUnits="userSpaceOnUse">
<stop stop-color="#487FD5"/>
<stop offset="1" stop-color="#B47DDA"/>
</linearGradient>
<linearGradient id="paint14_linear_1748_258" x1="7.53875" y1="9.49866" x2="7.53875" y2="23.0528" gradientUnits="userSpaceOnUse">
<stop stop-color="#487FD5"/>
<stop offset="1" stop-color="#B47DDA"/>
</linearGradient>
<clipPath id="clip0_1748_258">
<rect width="24.3558" height="23.6394" fill="white"/>
</clipPath>
</defs>
</svg>
