<svg width="23" height="23" viewBox="0 0 23 23" fill="none" xmlns="http://www.w3.org/2000/svg">
<g clip-path="url(#clip0_1744_128)">
<path d="M21.0729 5.89977C20.833 5.00788 20.1298 4.30481 19.2381 4.06465C17.6089 3.6189 11.0923 3.6189 11.0923 3.6189C11.0923 3.6189 4.57583 3.6189 2.94669 4.04775C2.07208 4.28765 1.35174 5.008 1.11183 5.89977C0.683105 7.52878 0.683105 10.9071 0.683105 10.9071C0.683105 10.9071 0.683105 14.3025 1.11183 15.9145C1.35199 16.8063 2.05493 17.5093 2.94682 17.7495C4.59299 18.1954 11.0925 18.1954 11.0925 18.1954C11.0925 18.1954 17.6089 18.1954 19.2381 17.7665C20.13 17.5265 20.833 16.8234 21.0732 15.9317C21.5018 14.3025 21.5018 10.9243 21.5018 10.9243C21.5018 10.9243 21.5189 7.52878 21.0729 5.89977ZM9.01749 14.0282V7.78609L14.4364 10.9071L9.01749 14.0282Z" fill="url(#paint0_linear_1744_128)"/>
</g>
<defs>
<linearGradient id="paint0_linear_1744_128" x1="11.0925" y1="3.6189" x2="11.0925" y2="18.1954" gradientUnits="userSpaceOnUse">
<stop stop-color="#487FD5"/>
<stop offset="1" stop-color="#B47DDA"/>
</linearGradient>
<clipPath id="clip0_1744_128">
<rect width="22.2067" height="22.2067" fill="white"/>
</clipPath>
</defs>
</svg>
