<svg width="23" height="23" viewBox="0 0 23 23" fill="none" xmlns="http://www.w3.org/2000/svg">
<path d="M5.04307 2.51455C4.65626 3.19504 4.66343 4.00452 5.05741 4.67789L8.83257 11.0534L17.6723 2.21365C17.2711 1.71937 16.6694 1.43286 16.0103 1.43286H6.91276C6.12476 1.43286 5.42992 1.84118 5.04307 2.51455Z" fill="url(#paint0_linear_1748_276)"/>
<path d="M20.2675 1.64273L1.64255 20.2677C1.36272 20.5476 1.36272 21.0009 1.64255 21.2807C1.78246 21.4206 1.96574 21.4906 2.14902 21.4906C2.33231 21.4906 2.51559 21.4206 2.6555 21.2807L9.10476 14.8314V20.7742C9.10476 21.0607 9.28385 21.3258 9.54889 21.4332C9.63485 21.469 9.72798 21.4906 9.82111 21.4906C10.0073 21.4906 10.1864 21.4189 10.3225 21.2828L13.6034 18.0736C13.7395 17.9375 13.8112 17.7584 13.8112 17.5649V11.519L15.8398 8.09636L21.2805 2.65569C21.5603 2.37586 21.5603 1.92255 21.2805 1.64273C21.0007 1.36291 20.5474 1.36291 20.2675 1.64273Z" fill="url(#paint1_linear_1748_276)"/>
<defs>
<linearGradient id="paint0_linear_1748_276" x1="11.2148" y1="1.43286" x2="11.2148" y2="11.0534" gradientUnits="userSpaceOnUse">
<stop stop-color="#487FD5"/>
<stop offset="1" stop-color="#B47DDA"/>
</linearGradient>
<linearGradient id="paint1_linear_1748_276" x1="11.4615" y1="1.43286" x2="11.4615" y2="21.4906" gradientUnits="userSpaceOnUse">
<stop stop-color="#487FD5"/>
<stop offset="1" stop-color="#B47DDA"/>
</linearGradient>
</defs>
</svg>
