<svg width="25" height="24" viewBox="0 0 25 24" fill="none" xmlns="http://www.w3.org/2000/svg">
<g clip-path="url(#clip0_1748_280)">
<path d="M14.0018 1.49067C14.0018 0.681483 14.6798 0.0229492 15.514 0.0229492C16.3478 0.0229492 17.0262 0.681483 17.0262 1.49067C17.0262 2.29986 16.3478 2.95839 15.514 2.95839C14.6798 2.95844 14.0018 2.29991 14.0018 1.49067ZM7.24812 2.95844C8.08182 2.95844 8.76031 2.29991 8.76031 1.49072C8.76031 0.681529 8.08182 0.0229492 7.24812 0.0229492C6.41388 0.0229492 5.73539 0.681483 5.73539 1.49067C5.73539 2.29986 6.41388 2.95844 7.24812 2.95844ZM11.3811 5.49783C12.2148 5.49783 12.8933 4.83976 12.8933 4.03011C12.8933 3.86999 12.8664 3.71504 12.8171 3.57057C12.8171 3.57011 12.8171 3.57011 12.8171 3.5696C12.8147 3.56295 12.8122 3.55635 12.8103 3.5497C12.6048 2.97548 12.0415 2.56234 11.3811 2.56234C10.5469 2.56234 9.86836 3.22087 9.86836 4.03006C9.86836 4.83976 10.5469 5.49783 11.3811 5.49783ZM12.9875 5.49783C14.1571 5.49783 15.1084 6.41788 15.1153 7.5516H18.5648V5.02403C18.5648 4.25085 17.9176 3.62168 17.122 3.62168H13.9077C13.7861 3.62168 13.6636 3.63733 13.545 3.66762C13.566 3.78559 13.5767 3.90642 13.5767 4.03006C13.5767 4.59856 13.3463 5.11498 12.9719 5.49778L12.9875 5.49783ZM9.77317 6.16158C8.97752 6.16158 8.32976 6.79029 8.32976 7.56346V10.091H14.4318V7.56346C14.4318 6.79029 13.7836 6.16158 12.9875 6.16158H9.77317ZM9.77317 5.49783H9.78977C9.41488 5.11503 9.18497 4.59861 9.18497 4.03011C9.18497 3.90646 9.19572 3.78517 9.2167 3.66721C9.09858 3.63687 8.97752 3.62173 8.8545 3.62173H5.64021C4.84408 3.62173 4.19679 4.2509 4.19679 5.02407V7.55164H7.64637C7.65327 6.41787 8.60414 5.49783 9.77317 5.49783ZM21.145 20.3461L20.993 20.576C20.929 20.6733 20.8194 20.7315 20.7002 20.7315C20.6342 20.7315 20.5698 20.7133 20.5142 20.6787L17.6333 18.8917C17.6026 18.9238 17.572 18.9561 17.5402 18.987C16.5772 19.9203 15.1357 20.2382 13.8534 19.8043C13.8446 19.8014 13.8364 19.7981 13.8275 19.7952C13.5815 19.71 13.3419 19.5968 13.1129 19.4551C11.4591 18.4322 10.971 16.2931 12.0249 14.6861C13.0798 13.0814 15.2836 12.6077 16.9379 13.6301C18.4487 14.5648 18.9871 16.43 18.2666 17.9693C18.2666 17.9698 18.2661 17.9703 18.2661 17.9708C18.2661 17.9712 18.2656 17.9712 18.2656 17.9712C18.2603 17.9812 18.2554 17.9916 18.2515 18.0016C18.251 18.0025 18.2505 18.0035 18.25 18.0044C18.2317 18.0423 18.2125 18.0799 18.1927 18.1173L21.0383 19.8829C21.1957 19.9807 21.2445 20.1927 21.145 20.3461ZM17.1117 17.8334C17.8444 16.7171 17.5051 15.2295 16.3556 14.5179C15.9534 14.2692 15.4964 14.1408 15.0313 14.1408C14.8512 14.1408 14.6705 14.1602 14.4904 14.1986C13.8456 14.3375 13.2945 14.7122 12.9392 15.2532C12.6834 15.6427 12.5511 16.0857 12.5511 16.5376C12.5511 16.712 12.5706 16.8877 12.6107 17.0621C12.7537 17.6879 13.1393 18.2228 13.6967 18.5672C14.2537 18.9121 14.9156 19.0254 15.5604 18.8866C16.2057 18.7482 16.7563 18.3739 17.1117 17.8334ZM12.7454 20.0146C10.7739 18.7951 10.192 16.2448 11.4484 14.3298C12.2567 13.0999 13.6308 12.4276 15.0333 12.4276C15.6947 12.4276 16.3624 12.5769 16.9799 12.8882C17.0902 12.9441 17.1986 13.0047 17.3055 13.0706C17.3929 13.1246 17.4778 13.1814 17.5598 13.2411L19.2677 10.895C19.4918 10.7098 19.6026 10.5051 19.6026 10.2815C19.6026 9.80865 19.1164 9.42872 18.1162 9.1203C17.3616 8.88769 16.3292 8.69816 15.1152 8.56976V9.23683C18.1684 9.56658 18.9036 10.1498 18.9192 10.2815C18.9168 10.3023 18.8904 10.3417 18.8264 10.3938C18.826 10.3938 18.826 10.3942 18.826 10.3942C18.8084 10.4047 18.7923 10.4175 18.7767 10.4317C18.5487 10.5928 18.001 10.8457 16.8203 11.0746C15.3613 11.3575 13.4292 11.5133 11.3811 11.5133C9.33244 11.5133 7.40091 11.3575 5.94142 11.0746C4.75969 10.8458 4.21197 10.5923 3.98454 10.4308C3.96941 10.417 3.95281 10.4047 3.93573 10.3943C3.93573 10.3943 3.93573 10.3938 3.93521 10.3938C3.87127 10.3417 3.84492 10.3024 3.84245 10.282C3.85857 10.1498 4.59367 9.56663 7.64642 9.23688V8.5698C6.43296 8.6982 5.40007 8.88769 4.6459 9.12034C3.64522 9.42876 3.15906 9.80875 3.15906 10.2815C3.15906 10.5051 3.26985 10.7098 3.4939 10.8951L8.69391 18.0352V23.2846C8.69391 23.3931 8.74904 23.4954 8.84133 23.5575C8.89941 23.5963 8.96724 23.6162 9.0356 23.6162C9.07613 23.6162 9.11714 23.6091 9.15667 23.5944L13.8471 21.8727C13.9798 21.8239 14.0682 21.7008 14.0682 21.5629V20.5538C13.8368 20.5026 13.6079 20.4311 13.3843 20.3396C13.1657 20.2505 12.9519 20.1425 12.7454 20.0146ZM16.3564 15.4395C16.2094 15.3247 15.9942 15.3472 15.8759 15.4899L14.5668 17.0683L13.8981 16.3234C13.7742 16.1853 13.5582 16.1709 13.4159 16.2912C13.2736 16.4116 13.2588 16.6211 13.3828 16.7592L14.3196 17.8027C14.3846 17.8751 14.4786 17.9165 14.5773 17.9165C14.5794 17.9165 14.5817 17.9165 14.5839 17.9165C14.685 17.9146 14.7801 17.8693 14.8435 17.7928L16.4084 15.906C16.5267 15.7632 16.5035 15.5544 16.3564 15.4395Z" fill="url(#paint0_linear_1748_280)"/>
</g>
<defs>
<linearGradient id="paint0_linear_1748_280" x1="12.1779" y1="0.0229492" x2="12.1779" y2="23.6162" gradientUnits="userSpaceOnUse">
<stop stop-color="#487FD5"/>
<stop offset="1" stop-color="#B47DDA"/>
</linearGradient>
<clipPath id="clip0_1748_280">
<rect width="24.3558" height="23.6394" fill="white"/>
</clipPath>
</defs>
</svg>
