<svg width="24" height="24" viewBox="0 0 24 24" fill="none" xmlns="http://www.w3.org/2000/svg">
<path d="M13.3914 15.0995C13.3914 15.3088 13.2254 15.4784 13.0206 15.4784H7.36173C7.21396 15.8561 6.85251 16.1238 6.4308 16.1238C6.00909 16.1238 5.64764 15.8561 5.49987 15.4784H4.58901C4.38423 15.4784 4.2182 15.3088 4.2182 15.0995C4.2182 14.8902 4.38423 14.7205 4.58901 14.7205H5.49992C5.64769 14.3429 6.00914 14.0752 6.4308 14.0752C6.85247 14.0752 7.21396 14.3428 7.36169 14.7205H13.0205C13.2254 14.7205 13.3914 14.8902 13.3914 15.0995ZM16.1949 13.9419H15.0418C14.7351 13.9419 14.4855 14.1969 14.4855 14.5103V15.6887C14.4855 16.0022 14.7351 16.2572 15.0418 16.2572H16.1949C16.5016 16.2572 16.7511 16.0022 16.7511 15.6887V14.5103C16.7511 14.1969 16.5016 13.9419 16.1949 13.9419ZM16.1949 8.13732H15.0418C14.7351 8.13732 14.4855 8.3923 14.4855 8.70573V9.88411C14.4855 10.1975 14.7351 10.4525 15.0418 10.4525H16.1949C16.5016 10.4525 16.7511 10.1975 16.7511 9.88411V8.70573C16.7511 8.3923 16.5016 8.13732 16.1949 8.13732ZM16.1949 5.37974H15.0418C14.7351 5.37974 14.4855 5.63472 14.4855 5.94815V7.12658C14.4855 7.44001 14.7351 7.69499 15.0418 7.69499H16.1949C16.5016 7.69499 16.7511 7.44001 16.7511 7.12658V5.94815C16.7511 5.63472 16.5016 5.37974 16.1949 5.37974ZM3.30989 14.3231C3.10511 14.3231 2.93908 14.4928 2.93908 14.7021V15.4969C2.93908 15.7062 3.10511 15.8758 3.30989 15.8758C3.51467 15.8758 3.6807 15.7062 3.6807 15.4969V14.7021C3.6807 14.4928 3.51472 14.3231 3.30989 14.3231ZM2.22493 14.3231C2.02015 14.3231 1.85412 14.4928 1.85412 14.7021V15.4969C1.85412 15.7062 2.02015 15.8758 2.22493 15.8758C2.42972 15.8758 2.59575 15.7062 2.59575 15.4969V14.7021C2.59575 14.4928 2.42972 14.3231 2.22493 14.3231ZM16.1949 11.0396H15.0418C14.7351 11.0396 14.4855 11.2946 14.4855 11.608V12.7864C14.4855 13.0999 14.7351 13.3549 15.0418 13.3549H16.1949C16.5016 13.3549 16.7511 13.0999 16.7511 12.7864V11.608C16.7511 11.2946 16.5016 11.0396 16.1949 11.0396ZM21.4145 6.72205H17.8104C17.6056 6.72205 17.4396 6.89173 17.4396 7.101C17.4396 7.31027 17.6056 7.47994 17.8104 7.47994H21.4145C21.6193 7.47994 21.7854 7.31027 21.7854 7.101C21.7854 6.89173 21.6193 6.72205 21.4145 6.72205ZM21.4145 8.35232H17.8104C17.6056 8.35232 17.4396 8.52199 17.4396 8.73127C17.4396 8.94054 17.6056 9.11021 17.8104 9.11021H21.4145C21.6193 9.11021 21.7854 8.94054 21.7854 8.73127C21.7854 8.52199 21.6193 8.35232 21.4145 8.35232ZM21.4145 5.59479H17.8104C17.6056 5.59479 17.4396 5.76446 17.4396 5.97373C17.4396 6.183 17.6056 6.35268 17.8104 6.35268H21.4145C21.6193 6.35268 21.7854 6.183 21.7854 5.97373C21.7854 5.76446 21.6193 5.59479 21.4145 5.59479ZM23.6394 4.48841V19.1938C23.6394 20.0764 22.9368 20.7944 22.0732 20.7944H16.7796L17.9143 22.7842C18.0159 22.9626 18.0172 23.1747 17.9177 23.3517C17.8178 23.5292 17.6323 23.6394 17.4334 23.6394H6.20604C6.00715 23.6394 5.82156 23.5292 5.72171 23.3516C5.6222 23.1746 5.62345 22.9625 5.72514 22.7842L6.85984 20.7944H1.56623C0.702647 20.7944 0 20.0763 0 19.1938V4.48836C0 3.60585 0.702601 2.88784 1.56623 2.88784H7.52364V0.92093C7.52364 0.413097 7.92792 0 8.42481 0H14.3471C14.8441 0 15.2483 0.413144 15.2483 0.92093V2.88789H22.0732C22.9368 2.88789 23.6394 3.6059 23.6394 4.48841ZM14.1003 1.57466C14.1003 1.36539 13.9342 1.19571 13.7295 1.19571H9.04254C8.83776 1.19571 8.67173 1.36539 8.67173 1.57466C8.67173 1.78393 8.83776 1.9536 9.04254 1.9536H13.7295C13.9342 1.9536 14.1003 1.78393 14.1003 1.57466ZM13.7295 2.39133H9.04254C8.83776 2.39133 8.67173 2.561 8.67173 2.77028C8.67173 2.97955 8.83776 3.14922 9.04254 3.14922H13.7295C13.9342 3.14922 14.1003 2.97955 14.1003 2.77028C14.1003 2.561 13.9342 2.39133 13.7295 2.39133ZM8.67173 3.96594C8.67173 4.17521 8.83776 4.34489 9.04254 4.34489H13.7295C13.9342 4.34489 14.1003 4.17521 14.1003 3.96594C14.1003 3.75667 13.9342 3.587 13.7295 3.587H9.04254C8.83776 3.587 8.67173 3.75667 8.67173 3.96594ZM2.5957 5.5405V12.1446H4.78749C4.92256 11.0871 5.6133 10.2098 6.53913 9.81585C6.15575 9.49309 5.91088 9.00439 5.91088 8.45828C5.91088 7.48866 6.68277 6.69984 7.63159 6.69984C8.58042 6.69984 9.35231 7.48866 9.35231 8.45828C9.35231 9.00434 9.10744 9.49309 8.72406 9.81585C9.64989 10.2098 10.3406 11.0871 10.4757 12.1445H12.6675V5.54046H11.3337L9.49141 7.09224C9.42369 7.14927 9.33998 7.17878 9.25548 7.17878C9.20181 7.17878 9.14781 7.16689 9.09738 7.14254C8.96755 7.07997 8.88476 6.94648 8.88476 6.79983V5.54046H2.5957V5.5405ZM5.53747 12.1446H9.72577C9.5481 11.1224 8.6664 10.35 7.63159 10.35C6.59679 10.35 5.71513 11.1224 5.53747 12.1446ZM15.9212 20.7944H7.71823L6.528 22.8815H17.1114L15.9212 20.7944ZM22.8978 4.48841C22.8978 4.02378 22.5279 3.64578 22.0732 3.64578H15.2483V4.61962C15.2483 5.12741 14.844 5.5405 14.3471 5.5405H13.4092V12.5235C13.4092 12.7328 13.2432 12.9025 13.0384 12.9025H2.22489C2.0201 12.9025 1.85407 12.7328 1.85407 12.5235V5.16156C1.85407 4.95229 2.0201 4.78261 2.22489 4.78261H7.53861C7.5293 4.72961 7.52364 4.67533 7.52364 4.61962V3.64578H1.56623C1.11156 3.64578 0.741629 4.02378 0.741629 4.48841V17.9911H22.8978V4.48841ZM21.4145 9.47959H17.8104C17.6056 9.47959 17.4396 9.64926 17.4396 9.85853C17.4396 10.0678 17.6056 10.2375 17.8104 10.2375H21.4145C21.6193 10.2375 21.7854 10.0678 21.7854 9.85853C21.7854 9.64926 21.6193 9.47959 21.4145 9.47959ZM21.4145 12.3819H17.8104C17.6056 12.3819 17.4396 12.5515 17.4396 12.7608C17.4396 12.9701 17.6056 13.1398 17.8104 13.1398H21.4145C21.6193 13.1398 21.7854 12.9701 21.7854 12.7608C21.7854 12.5515 21.6193 12.3819 21.4145 12.3819ZM21.4145 14.1569H17.8104C17.6056 14.1569 17.4396 14.3266 17.4396 14.5358C17.4396 14.7451 17.6056 14.9148 17.8104 14.9148H21.4145C21.6193 14.9148 21.7854 14.7451 21.7854 14.5358C21.7854 14.3266 21.6193 14.1569 21.4145 14.1569ZM21.4145 11.2546H17.8104C17.6056 11.2546 17.4396 11.4243 17.4396 11.6336C17.4396 11.8428 17.6056 12.0125 17.8104 12.0125H21.4145C21.6193 12.0125 21.7854 11.8428 21.7854 11.6336C21.7854 11.4243 21.6193 11.2546 21.4145 11.2546ZM21.4145 15.2842H17.8104C17.6056 15.2842 17.4396 15.4539 17.4396 15.6632C17.4396 15.8724 17.6056 16.0421 17.8104 16.0421H21.4145C21.6193 16.0421 21.7854 15.8724 21.7854 15.6632C21.7854 15.4539 21.6193 15.2842 21.4145 15.2842Z" fill="url(#paint0_linear_1744_118)"/>
<defs>
<linearGradient id="paint0_linear_1744_118" x1="11.8197" y1="0" x2="11.8197" y2="23.6394" gradientUnits="userSpaceOnUse">
<stop stop-color="#487FD5"/>
<stop offset="1" stop-color="#B47DDA"/>
</linearGradient>
</defs>
</svg>
