<svg width="23" height="28" viewBox="0 0 23 28" fill="none" xmlns="http://www.w3.org/2000/svg">
<path fill-rule="evenodd" clip-rule="evenodd" d="M14.7196 9.70922C17.0907 11.0073 18.0103 13.703 18.0103 16.4253C18.0103 18.9077 17.3053 19.9384 16.5641 21.0221C15.7951 22.1463 14.9831 23.3335 15.0361 26.6405L15.0361 26.6495H15.0377C15.0377 26.9679 14.7821 27.2185 14.4689 27.2196V27.2212H8.70357C8.39835 27.2212 8.13479 26.9671 8.13479 26.6494V24.0333C8.13479 24.0026 8.11071 23.9781 8.08088 23.9784L6.26207 23.9998C5.46433 24.0097 4.82363 23.3511 4.82363 22.5355V20.2054C4.82363 20.1751 4.79968 20.1504 4.77034 20.1504H3.30769C2.86716 20.1504 2.5916 19.6323 2.85039 19.2479C3.41242 18.4132 3.90903 17.642 4.43423 16.7979C4.67105 16.4173 4.82196 16.1378 4.95789 15.7582C5.09864 15.3652 5.22993 14.85 5.4254 14.0042C5.87008 12.0797 7.15551 10.4575 8.87583 9.59502C8.90363 9.5811 8.91415 9.54631 8.89898 9.51854C8.48903 8.76925 8.14451 8.10376 8.14451 7.17196C8.14451 5.07286 9.79464 3.37101 11.8301 3.37101C13.8655 3.37101 15.5157 5.0728 15.5157 7.17196C15.5157 8.55782 14.6551 9.54082 14.6934 9.67609C14.6976 9.69083 14.7064 9.70201 14.7196 9.70922ZM18.0999 9.12315C22.1352 12.9739 22.5206 19.3966 19.0225 23.7244C18.9888 23.7662 18.9222 23.7366 18.9285 23.6826L18.9752 23.2789C19.0011 23.053 18.8444 22.8481 18.6253 22.8214C18.4062 22.7947 18.2075 22.9563 18.1816 23.1822L17.9734 24.9796L17.9738 24.9797C17.9431 25.2479 18.1727 25.4792 18.4358 25.434L20.1672 25.1369C20.3846 25.0996 20.5315 24.8875 20.4953 24.6633C20.4591 24.439 20.2534 24.2876 20.036 24.3249L19.6407 24.3928C19.592 24.4012 19.5594 24.342 19.5912 24.3031C23.4098 19.6394 23.0085 12.6884 18.6405 8.52067C18.4791 8.36676 18.2273 8.37685 18.0781 8.5432C17.9288 8.70956 17.9385 8.96924 18.0999 9.12315ZM2.17075 9.52499L2.56603 9.4572C2.61475 9.44884 2.6473 9.50801 2.61549 9.54689C-1.20305 14.2105 -0.801766 21.1616 3.5663 25.3293C3.72767 25.4832 3.97947 25.4732 4.1287 25.3068C4.27794 25.1404 4.26816 24.8807 4.10685 24.7268C0.0716737 20.8767 -0.313949 14.4532 3.18427 10.1254C3.218 10.0836 3.2846 10.1132 3.27835 10.1672L3.23156 10.5709C3.20568 10.7969 3.36235 11.0018 3.58147 11.0285C3.80058 11.0552 3.99928 10.8936 4.02515 10.6676L4.23337 8.87023L4.233 8.87017C4.26364 8.60193 4.03406 8.37072 3.77093 8.41585L2.03953 8.71294C1.82208 8.75029 1.67526 8.96241 1.71147 9.1866C1.74768 9.41085 1.95337 9.56234 2.17075 9.52499ZM18.1588 6.13004H16.6697C16.4488 6.13004 16.2698 6.31471 16.2698 6.54248C16.2698 6.77024 16.4488 6.95492 16.6697 6.95492H18.1588C18.3796 6.95492 18.5587 6.77024 18.5587 6.54248C18.5587 6.31471 18.3796 6.13004 18.1588 6.13004ZM16.0318 1.90823L14.9788 2.92812C14.8183 3.08382 14.8106 3.34427 14.9616 3.50973C15.1125 3.67525 15.3651 3.68317 15.5255 3.52747L16.5785 2.50758C16.739 2.35188 16.7466 2.09144 16.5957 1.92597C16.4447 1.76045 16.1922 1.75253 16.0318 1.90823ZM11.4302 0.41244C11.4302 0.184676 11.6092 0 11.8301 0C12.0509 0 12.23 0.184676 12.23 0.41244V1.8548C12.23 2.08256 12.0509 2.26724 11.8301 2.26724C11.6092 2.26724 11.4302 2.08256 11.4302 1.8548V0.41244ZM7.0816 2.50758L8.13455 3.52747C8.29505 3.68317 8.54753 3.67525 8.6985 3.50973C8.84946 3.3442 8.84179 3.08382 8.68129 2.92812L7.62841 1.90823C7.46791 1.75253 7.21542 1.76045 7.06446 1.92597C6.91342 2.09144 6.92116 2.35188 7.0816 2.50758ZM5.50135 6.95498H6.99049C7.21134 6.95498 7.39041 6.77031 7.39041 6.54254C7.39041 6.31478 7.21134 6.1301 6.99049 6.1301H5.50135C5.2805 6.1301 5.10143 6.31478 5.10143 6.54254C5.10143 6.77031 5.2805 6.95498 5.50135 6.95498ZM10.7003 11.6362H12.9597C12.9844 11.6362 13.0052 11.6196 13.0114 11.5949C13.5342 9.49875 14.7158 8.60129 14.7158 7.17196C14.7158 5.52826 13.4238 4.19589 11.83 4.19589C10.2362 4.19589 8.94429 5.52826 8.94429 7.17196C8.94429 8.60129 10.1258 9.49882 10.6487 11.5949C10.6549 11.6196 10.6757 11.6362 10.7003 11.6362ZM13.7204 13.285C13.7234 13.5225 13.7224 13.7365 13.5336 13.9238L13.5344 13.9246C13.4826 13.978 13.3732 14.0303 13.4397 14.089C14.529 15.0496 14.6097 16.7748 13.5816 17.8352C12.6142 18.8329 11.0459 18.8329 10.0785 17.8352C9.05007 16.7746 9.13104 15.0488 10.221 14.0884C10.2478 14.0648 10.2456 14.0218 10.2165 14.0012C10.0483 13.8822 9.94023 13.6837 9.94023 13.4648C9.94023 13.3637 9.95787 13.2586 9.91052 13.2345C9.81359 13.1852 9.68038 13.5146 9.366 13.4458L8.3939 13.2327C8.37093 13.2276 8.3484 13.238 8.33664 13.259L7.75734 14.2937C7.74558 14.3147 7.74818 14.34 7.7639 14.358L8.42825 15.119L8.42788 15.1193C8.58856 15.3037 8.51249 15.4845 8.492 15.7426C8.47399 15.9692 8.4787 16.3626 8.52221 16.5787C8.54734 16.7029 8.51676 16.8373 8.42825 16.9388L7.76334 17.7003C7.74762 17.7183 7.74502 17.7437 7.75678 17.7647L8.33658 18.7989C8.34834 18.8198 8.37087 18.8301 8.39384 18.8252L9.36594 18.6121L9.36613 18.6129C9.48051 18.5879 9.60449 18.6149 9.70186 18.6975C9.92636 18.8879 10.3596 19.1711 10.6323 19.2569C10.7516 19.2953 10.8517 19.3907 10.8932 19.5226L11.1995 20.495C11.2068 20.518 11.2268 20.5329 11.2502 20.5329H12.4097C12.4332 20.5329 12.4532 20.518 12.4604 20.495L12.7667 19.5228L12.7674 19.5231C12.8037 19.408 12.8888 19.3106 13.0073 19.265C13.2822 19.1593 13.7305 18.9131 13.9407 18.7125C14.0326 18.6251 14.1628 18.5834 14.2944 18.6121L15.2661 18.8252C15.2891 18.8302 15.3116 18.8199 15.3234 18.7989L15.6133 18.281L15.614 18.2813L15.9032 17.7647C15.915 17.7437 15.9124 17.7184 15.8967 17.7004L15.2316 16.9387L15.232 16.9384C15.0712 16.7539 15.1474 16.5729 15.1679 16.3147C15.1859 16.0881 15.1813 15.6952 15.1377 15.4791C15.1126 15.3549 15.1432 15.2206 15.2317 15.1191L15.896 14.3581C15.9118 14.3401 15.9144 14.3148 15.9026 14.2938L15.3233 13.259C15.3115 13.238 15.289 13.2277 15.266 13.2327L14.2939 13.4458L14.2937 13.4451C13.9791 13.5137 13.8464 13.1852 13.7497 13.2352C13.7311 13.2449 13.7201 13.2634 13.7204 13.285ZM12.8663 12.4611H10.7935C10.7641 12.4611 10.7402 12.4858 10.7402 12.5161V13.2354C10.7402 13.2657 10.7641 13.2904 10.7935 13.2904H12.8663C12.8957 13.2904 12.9196 13.2657 12.9196 13.2354V12.5161C12.9196 12.4858 12.8956 12.4611 12.8663 12.4611Z" fill="url(#paint0_linear_1744_108)"/>
<defs>
<linearGradient id="paint0_linear_1744_108" x1="11.1034" y1="0" x2="11.1034" y2="27.2212" gradientUnits="userSpaceOnUse">
<stop stop-color="#487FD5"/>
<stop offset="1" stop-color="#B47DDA"/>
</linearGradient>
</defs>
</svg>
