<svg width="25" height="25" viewBox="0 0 25 25" fill="none" xmlns="http://www.w3.org/2000/svg">
<g clip-path="url(#clip0_1744_130)">
<path d="M10.385 6.91048C9.75438 6.79631 9.64216 6.08852 9.51434 5.27926C9.43228 4.75932 9.14382 4.53755 8.54977 4.53755C8.28656 4.53755 7.96989 4.58217 7.58153 4.67403C7.25867 4.75033 6.96807 4.78905 6.71761 4.78905C6.21765 4.78905 5.94674 4.63921 5.80018 4.48218C5.6873 4.69886 5.62251 5.07261 5.56357 5.4125C5.45335 6.04808 5.32967 6.75906 4.83223 6.90101C4.82138 7.04753 4.81567 7.19285 4.81567 7.33608C4.81567 9.87765 6.56534 10.2571 7.60826 10.2571C8.65118 10.2571 10.4007 9.8776 10.4007 7.33608C10.4008 7.1959 10.3953 7.05376 10.385 6.91048Z" fill="url(#paint0_linear_1744_130)"/>
<path d="M10.9094 2.37096C10.3891 1.24646 8.9542 0.847534 7.88354 0.847534C6.7472 0.847534 5.82415 1.26877 5.58692 1.89574C5.55443 1.98169 5.46704 2.03369 5.37552 2.0208C4.93811 1.95919 4.62444 2.14538 4.41508 2.59454C3.90794 3.68279 4.24436 5.80189 4.72914 6.51886C4.9688 6.43171 5.06774 5.97062 5.17611 5.3455C5.27862 4.7544 5.37538 4.19612 5.73286 3.98519C5.78543 3.95418 5.8496 3.94923 5.90635 3.9723C5.96296 3.99514 6.00582 4.04309 6.02223 4.10203C6.07332 4.28617 6.33334 4.39601 6.71765 4.39601C6.93762 4.39601 7.19783 4.3609 7.49105 4.2915C7.90942 4.19265 8.25573 4.14451 8.54981 4.14451C9.33519 4.14451 9.79043 4.50575 9.90284 5.21806C10.0404 6.08892 10.1331 6.46568 10.4689 6.52523C11.0438 5.55405 11.4992 3.64588 10.9094 2.37096Z" fill="url(#paint1_linear_1744_130)"/>
<path d="M3.28641 22.7771C4.66099 23.2594 6.11611 23.5082 7.60832 23.5082C9.10054 23.5082 10.5557 23.2594 11.9303 22.7771L10.988 16.6891C10.9713 16.5818 11.0448 16.4813 11.1522 16.4647C11.1653 16.4626 11.1783 16.462 11.191 16.4626L9.30919 14.5806C8.99946 14.271 8.82887 13.8592 8.82887 13.4211C8.82887 13.2598 8.85218 13.1021 8.8969 12.9517L7.77158 14.6303C7.7351 14.6847 7.67383 14.7174 7.60823 14.7174C7.54268 14.7174 7.48141 14.6847 7.44492 14.6303L5.36231 11.5238C3.72077 11.5687 2.07928 12.8678 1.67555 14.4585L0 21.0618C0.909298 21.7155 1.88562 22.2431 2.90975 22.6387L3.83998 16.629C3.85663 16.5216 3.95705 16.448 4.06437 16.4647C4.17173 16.4813 4.24528 16.5818 4.22868 16.6891L3.28641 22.7771Z" fill="url(#paint2_linear_1744_130)"/>
<path d="M10.4688 11.7816C10.9068 11.7816 11.3186 11.9521 11.6284 12.2619L13.4015 14.0351C12.8399 12.6434 11.3473 11.5647 9.8542 11.5239L9.43616 12.1475C9.72738 11.9105 10.0882 11.7816 10.4688 11.7816Z" fill="url(#paint3_linear_1744_130)"/>
<path d="M14.1507 19.4223L11.3801 16.6516L12.3068 22.6387C13.331 22.2431 14.3071 21.7156 15.2165 21.062L14.9098 19.8533C14.625 19.7821 14.3638 19.635 14.1507 19.4223Z" fill="url(#paint4_linear_1744_130)"/>
<path d="M23.8341 6.32511C23.6215 6.17332 23.3715 6.09302 23.1111 6.09302C22.7087 6.09302 22.329 6.28824 22.0954 6.61529L15.286 16.1518C15.2524 16.1988 15.1998 16.2287 15.1422 16.2335C15.0844 16.2381 15.0278 16.2174 14.9869 16.1765L11.3503 12.5399C11.1148 12.3044 10.8017 12.1747 10.4688 12.1747C10.1359 12.1747 9.8228 12.3044 9.58738 12.5399C9.3519 12.7752 9.22223 13.0882 9.22223 13.4211C9.22223 13.7541 9.3519 14.0671 9.58738 14.3025L14.4287 19.144C14.6643 19.3793 14.9774 19.5089 15.3101 19.5089C15.3454 19.5089 15.3801 19.5075 15.4133 19.5048C15.7789 19.4744 16.1112 19.2857 16.3246 18.9868L24.1242 8.06393C24.5234 7.5047 24.3934 6.7246 23.8341 6.32511Z" fill="url(#paint5_linear_1744_130)"/>
</g>
<defs>
<linearGradient id="paint0_linear_1744_130" x1="7.60819" y1="4.48218" x2="7.60819" y2="10.2571" gradientUnits="userSpaceOnUse">
<stop stop-color="#487FD5"/>
<stop offset="1" stop-color="#B47DDA"/>
</linearGradient>
<linearGradient id="paint1_linear_1744_130" x1="7.67394" y1="0.847534" x2="7.67394" y2="6.52523" gradientUnits="userSpaceOnUse">
<stop stop-color="#487FD5"/>
<stop offset="1" stop-color="#B47DDA"/>
</linearGradient>
<linearGradient id="paint2_linear_1744_130" x1="5.96514" y1="11.5238" x2="5.96514" y2="23.5082" gradientUnits="userSpaceOnUse">
<stop stop-color="#487FD5"/>
<stop offset="1" stop-color="#B47DDA"/>
</linearGradient>
<linearGradient id="paint3_linear_1744_130" x1="11.4188" y1="11.5239" x2="11.4188" y2="14.0351" gradientUnits="userSpaceOnUse">
<stop stop-color="#487FD5"/>
<stop offset="1" stop-color="#B47DDA"/>
</linearGradient>
<linearGradient id="paint4_linear_1744_130" x1="13.2983" y1="16.6516" x2="13.2983" y2="22.6387" gradientUnits="userSpaceOnUse">
<stop stop-color="#487FD5"/>
<stop offset="1" stop-color="#B47DDA"/>
</linearGradient>
<linearGradient id="paint5_linear_1744_130" x1="16.789" y1="6.09302" x2="16.789" y2="19.5089" gradientUnits="userSpaceOnUse">
<stop stop-color="#487FD5"/>
<stop offset="1" stop-color="#B47DDA"/>
</linearGradient>
<clipPath id="clip0_1744_130">
<rect width="24.3558" height="24.3558" fill="white"/>
</clipPath>
</defs>
</svg>
